# xmcd
#
# Track frame offsets:
#	150
#	12600
#	27719
#	42542
#	54887
#	67019
#	83443
#	103286
#	119430
#	133729
#	146919
#	159960
#	173957
#	191725
#	208584
#	223865
#	242172
#
# Disc length: 3656 seconds
#
# Revision: 0
# Processed by: cddbd v1.5.1PL0 Copyright (c) Steve Scherf et al.
# Submitted via: dBpowerAMP V4.0
#
DISCID=080e4611
DTITLE=Hermanos Othon - Segunda caravana SF
DYEAR=1900
DGENRE=Rancheras
TTITLE0=San Felipe de Jesus
TTITLE1=Banamichi
TTITLE2=Primavera
TTITLE3=La Pilareña
TTITLE4=El Pajaro Burlon
TTITLE5=Las Isabeles
TTITLE6=Blanca
TTITLE7=La Pecosita
TTITLE8=Flor de Amor
TTITLE9=El Zopilote Mojado
TTITLE10=Para Ti
TTITLE11=Cancion de Amor
TTITLE12=Paloma Abanera
TTITLE13=Baile del Diablo
TTITLE14=Paso Doble J.R.
TTITLE15=Amor Eterno
TTITLE16=Popurri de Boleros (Vagabundo, Veracruz, Albricias, Palmeras)
EXTD=Edición especial segunda caravana del Recuerdo San Felipe de Jesús Sonora
EXTT0=
EXTT1=
EXTT2=
EXTT3=
EXTT4=
EXTT5=
EXTT6=
EXTT7=
EXTT8=
EXTT9=
EXTT10=
EXTT11=
EXTT12=
EXTT13=
EXTT14=
EXTT15=
EXTT16=
PLAYORDER=
